<mxfile host="65bd71144e">
    <diagram id="sqeROLMiZLDbrROoGYBa" name="Page-1">
        <mxGraphModel dx="1019" dy="618" grid="1" gridSize="10" guides="1" tooltips="1" connect="1" arrows="1" fold="1" page="1" pageScale="1" pageWidth="850" pageHeight="1100" math="0" shadow="0">
            <root>
                <mxCell id="0"/>
                <mxCell id="1" parent="0"/>
                <mxCell id="2" value="" style="rounded=0;whiteSpace=wrap;html=1;" parent="1" vertex="1">
                    <mxGeometry x="40" y="170" width="760" height="510" as="geometry"/>
                </mxCell>
                <mxCell id="3" value="" style="shape=umlLifeline;perimeter=lifelinePerimeter;whiteSpace=wrap;html=1;container=1;dropTarget=0;collapsible=0;recursiveResize=0;outlineConnect=0;portConstraint=eastwest;newEdgeStyle={&quot;curved&quot;:0,&quot;rounded&quot;:0};participant=umlActor;" parent="1" vertex="1">
                    <mxGeometry x="170" y="230" width="20" height="390" as="geometry"/>
                </mxCell>
                <mxCell id="49" value="" style="html=1;points=[[0,0,0,0,5],[0,1,0,0,-5],[1,0,0,0,5],[1,1,0,0,-5]];perimeter=orthogonalPerimeter;outlineConnect=0;targetShapes=umlLifeline;portConstraint=eastwest;newEdgeStyle={&quot;curved&quot;:0,&quot;rounded&quot;:0};" vertex="1" parent="3">
                    <mxGeometry x="5" y="66" width="10" height="324" as="geometry"/>
                </mxCell>
                <mxCell id="4" value="Student" style="text;align=center;fontStyle=1;verticalAlign=middle;spacingLeft=3;spacingRight=3;strokeColor=none;rotatable=0;points=[[0,0.5],[1,0.5]];portConstraint=eastwest;html=1;" parent="1" vertex="1">
                    <mxGeometry x="140" y="270" width="80" height="26" as="geometry"/>
                </mxCell>
                <mxCell id="5" value="System" style="shape=umlLifeline;perimeter=lifelinePerimeter;whiteSpace=wrap;html=1;container=1;dropTarget=0;collapsible=0;recursiveResize=0;outlineConnect=0;portConstraint=eastwest;newEdgeStyle={&quot;curved&quot;:0,&quot;rounded&quot;:0};" parent="1" vertex="1">
                    <mxGeometry x="610" y="220" width="100" height="400" as="geometry"/>
                </mxCell>
                <mxCell id="18" value="" style="html=1;points=[[0,0,0,0,5],[0,1,0,0,-5],[1,0,0,0,5],[1,1,0,0,-5]];perimeter=orthogonalPerimeter;outlineConnect=0;targetShapes=umlLifeline;portConstraint=eastwest;newEdgeStyle={&quot;curved&quot;:0,&quot;rounded&quot;:0};" parent="5" vertex="1">
                    <mxGeometry x="50" y="170" width="10" height="40" as="geometry"/>
                </mxCell>
                <mxCell id="19" value="check condition" style="html=1;align=left;spacingLeft=2;endArrow=block;rounded=0;edgeStyle=orthogonalEdgeStyle;curved=0;rounded=0;" parent="5" target="18" edge="1">
                    <mxGeometry x="0.3331" y="-5" relative="1" as="geometry">
                        <mxPoint x="55" y="110" as="sourcePoint"/>
                        <Array as="points">
                            <mxPoint x="55" y="150"/>
                            <mxPoint x="85" y="150"/>
                            <mxPoint x="85" y="190"/>
                        </Array>
                        <mxPoint as="offset"/>
                    </mxGeometry>
                </mxCell>
                <mxCell id="6" value="" style="html=1;points=[[0,0,0,0,5],[0,1,0,0,-5],[1,0,0,0,5],[1,1,0,0,-5]];perimeter=orthogonalPerimeter;outlineConnect=0;targetShapes=umlLifeline;portConstraint=eastwest;newEdgeStyle={&quot;curved&quot;:0,&quot;rounded&quot;:0};" parent="5" vertex="1">
                    <mxGeometry x="45" y="76" width="10" height="324" as="geometry"/>
                </mxCell>
                <mxCell id="20" value="interface" style="shape=umlLifeline;perimeter=lifelinePerimeter;whiteSpace=wrap;html=1;container=1;dropTarget=0;collapsible=0;recursiveResize=0;outlineConnect=0;portConstraint=eastwest;newEdgeStyle={&quot;curved&quot;:0,&quot;rounded&quot;:0};" parent="1" vertex="1">
                    <mxGeometry x="350" y="230" width="100" height="390" as="geometry"/>
                </mxCell>
                <mxCell id="50" value="" style="html=1;points=[[0,0,0,0,5],[0,1,0,0,-5],[1,0,0,0,5],[1,1,0,0,-5]];perimeter=orthogonalPerimeter;outlineConnect=0;targetShapes=umlLifeline;portConstraint=eastwest;newEdgeStyle={&quot;curved&quot;:0,&quot;rounded&quot;:0};" vertex="1" parent="20">
                    <mxGeometry x="45" y="66" width="10" height="324" as="geometry"/>
                </mxCell>
                <mxCell id="21" value="" style="html=1;verticalAlign=bottom;labelBackgroundColor=none;endArrow=block;endFill=1;" parent="1" edge="1" target="20">
                    <mxGeometry width="160" relative="1" as="geometry">
                        <mxPoint x="180" y="320" as="sourcePoint"/>
                        <mxPoint x="340" y="320" as="targetPoint"/>
                    </mxGeometry>
                </mxCell>
                <mxCell id="34" value="Click nút đăng kí" style="edgeLabel;html=1;align=center;verticalAlign=middle;resizable=0;points=[];" vertex="1" connectable="0" parent="21">
                    <mxGeometry x="-0.2732" y="-1" relative="1" as="geometry">
                        <mxPoint as="offset"/>
                    </mxGeometry>
                </mxCell>
                <mxCell id="23" value="" style="html=1;verticalAlign=bottom;labelBackgroundColor=none;endArrow=block;endFill=1;" parent="1" target="6" edge="1" source="20">
                    <mxGeometry width="160" relative="1" as="geometry">
                        <mxPoint x="400" y="340" as="sourcePoint"/>
                        <mxPoint x="560" y="340" as="targetPoint"/>
                        <Array as="points">
                            <mxPoint x="620" y="350"/>
                        </Array>
                    </mxGeometry>
                </mxCell>
                <mxCell id="35" value="Yêu cầu đăng kí môn học" style="edgeLabel;html=1;align=center;verticalAlign=middle;resizable=0;points=[];" vertex="1" connectable="0" parent="23">
                    <mxGeometry x="-0.2246" y="1" relative="1" as="geometry">
                        <mxPoint x="31" y="1" as="offset"/>
                    </mxGeometry>
                </mxCell>
                <mxCell id="31" value="" style="html=1;verticalAlign=bottom;labelBackgroundColor=none;endArrow=block;endFill=1;dashed=1;" parent="1" source="6" target="50" edge="1">
                    <mxGeometry width="160" relative="1" as="geometry">
                        <mxPoint x="440" y="420" as="sourcePoint"/>
                        <mxPoint x="420" y="425" as="targetPoint"/>
                    </mxGeometry>
                </mxCell>
                <mxCell id="36" value="Hệ thống ghi nhận" style="edgeLabel;html=1;align=center;verticalAlign=middle;resizable=0;points=[];" vertex="1" connectable="0" parent="31">
                    <mxGeometry x="0.0737" y="-3" relative="1" as="geometry">
                        <mxPoint y="3" as="offset"/>
                    </mxGeometry>
                </mxCell>
                <mxCell id="40" value="alt" style="shape=umlFrame;whiteSpace=wrap;html=1;pointerEvents=0;recursiveResize=0;container=1;collapsible=0;width=50;" vertex="1" parent="1">
                    <mxGeometry x="110" y="400" width="620" height="250" as="geometry"/>
                </mxCell>
                <mxCell id="53" value="Đã đăng kí" style="text;html=1;align=center;verticalAlign=middle;whiteSpace=wrap;rounded=0;" vertex="1" parent="40">
                    <mxGeometry y="120" width="60" height="30" as="geometry"/>
                </mxCell>
                <mxCell id="46" value="" style="html=1;verticalAlign=bottom;labelBackgroundColor=none;endArrow=block;endFill=1;dashed=1;" edge="1" parent="40">
                    <mxGeometry width="160" relative="1" as="geometry">
                        <mxPoint x="285" y="200" as="sourcePoint"/>
                        <mxPoint x="75" y="200" as="targetPoint"/>
                        <Array as="points">
                            <mxPoint x="240" y="200"/>
                        </Array>
                    </mxGeometry>
                </mxCell>
                <mxCell id="47" value="Không đủ điều kiện" style="edgeLabel;html=1;align=center;verticalAlign=middle;resizable=0;points=[];" vertex="1" connectable="0" parent="46">
                    <mxGeometry x="0.5519" y="-3" relative="1" as="geometry">
                        <mxPoint x="61" y="3" as="offset"/>
                    </mxGeometry>
                </mxCell>
                <mxCell id="62" value="Trùng lịch" style="text;html=1;align=center;verticalAlign=middle;whiteSpace=wrap;rounded=0;" vertex="1" parent="40">
                    <mxGeometry y="180" width="60" height="30" as="geometry"/>
                </mxCell>
                <mxCell id="48" value="" style="endArrow=none;dashed=1;html=1;dashPattern=1 3;strokeWidth=2;entryX=1.002;entryY=0.425;entryDx=0;entryDy=0;entryPerimeter=0;" edge="1" parent="1" target="40">
                    <mxGeometry width="50" height="50" relative="1" as="geometry">
                        <mxPoint x="111" y="490" as="sourcePoint"/>
                        <mxPoint x="729.9999999999998" y="490" as="targetPoint"/>
                    </mxGeometry>
                </mxCell>
                <mxCell id="44" value="" style="html=1;verticalAlign=bottom;labelBackgroundColor=none;endArrow=block;endFill=1;dashed=1;" edge="1" parent="1" source="6" target="50">
                    <mxGeometry width="160" relative="1" as="geometry">
                        <mxPoint x="655" y="520" as="sourcePoint"/>
                        <mxPoint x="420" y="520" as="targetPoint"/>
                        <Array as="points">
                            <mxPoint x="600" y="530"/>
                        </Array>
                    </mxGeometry>
                </mxCell>
                <mxCell id="45" value="Hệ thống không ghi nhận" style="edgeLabel;html=1;align=center;verticalAlign=middle;resizable=0;points=[];" vertex="1" connectable="0" parent="44">
                    <mxGeometry x="0.0737" y="-3" relative="1" as="geometry">
                        <mxPoint y="3" as="offset"/>
                    </mxGeometry>
                </mxCell>
                <mxCell id="52" value="Chưa đăng kí" style="text;html=1;align=center;verticalAlign=middle;whiteSpace=wrap;rounded=0;" vertex="1" parent="1">
                    <mxGeometry x="110" y="450" width="60" height="30" as="geometry"/>
                </mxCell>
                <mxCell id="54" value="" style="html=1;verticalAlign=bottom;labelBackgroundColor=none;endArrow=block;endFill=1;dashed=1;" edge="1" parent="1" source="50" target="49">
                    <mxGeometry width="160" relative="1" as="geometry">
                        <mxPoint x="390" y="540" as="sourcePoint"/>
                        <mxPoint x="190" y="540" as="targetPoint"/>
                    </mxGeometry>
                </mxCell>
                <mxCell id="55" value="Đăng kí thành công" style="edgeLabel;html=1;align=center;verticalAlign=middle;resizable=0;points=[];" vertex="1" connectable="0" parent="54">
                    <mxGeometry x="0.5519" y="-3" relative="1" as="geometry">
                        <mxPoint x="61" y="3" as="offset"/>
                    </mxGeometry>
                </mxCell>
                <mxCell id="57" value="" style="html=1;verticalAlign=bottom;labelBackgroundColor=none;endArrow=block;endFill=1;dashed=1;" edge="1" parent="1" source="50" target="49">
                    <mxGeometry width="160" relative="1" as="geometry">
                        <mxPoint x="390" y="550" as="sourcePoint"/>
                        <mxPoint x="200" y="550" as="targetPoint"/>
                        <Array as="points">
                            <mxPoint x="345" y="550"/>
                        </Array>
                    </mxGeometry>
                </mxCell>
                <mxCell id="58" value="Môn học đã được đăng kí" style="edgeLabel;html=1;align=center;verticalAlign=middle;resizable=0;points=[];" vertex="1" connectable="0" parent="57">
                    <mxGeometry x="0.5519" y="-3" relative="1" as="geometry">
                        <mxPoint x="61" y="3" as="offset"/>
                    </mxGeometry>
                </mxCell>
                <mxCell id="59" value="" style="endArrow=none;dashed=1;html=1;dashPattern=1 3;strokeWidth=2;entryX=1.003;entryY=0.712;entryDx=0;entryDy=0;entryPerimeter=0;exitX=0.001;exitY=0.653;exitDx=0;exitDy=0;exitPerimeter=0;" edge="1" parent="1" source="40" target="40">
                    <mxGeometry width="50" height="50" relative="1" as="geometry">
                        <mxPoint x="110.00000000000003" y="571.75" as="sourcePoint"/>
                        <mxPoint x="728.7599999999998" y="570" as="targetPoint"/>
                    </mxGeometry>
                </mxCell>
            </root>
        </mxGraphModel>
    </diagram>
</mxfile>